# xmcd CD database file
#
# Track frame offsets:
#	150
#	19961
#	33143
#	50207
#	69917
#	87641
#	102158
#	117349
#	134172
#	148525
#	168332
#	184816
#	198621
#	215540
#	237340
#	254984
#	272591
#	288414
#	307056
#	320758
#	337122
#
# Disc length: 4704 seconds
#
# Revision: 0
# Processed by: cddbd v1.5.2PL0 Copyright (c) Steve Scherf et al.
# Submitted via: CDex 1.51
#
DISCID=5a125e15
DTITLE=Various Artist - Bravo Black Hits 27 CD2
DYEAR=2012
DGENRE=Rhythmic Soul
TTITLE0=Max Herre Feat. Philipp Poisel - Wolke 7
TTITLE1=Cro - Du
TTITLE2=Die Orsons featuring Cro - Horst and Monika
TTITLE3=Xavas - Schau nicht mehr zurück
TTITLE4=Jennifer Rostock featuring Sido - Du willst mir an die Wäsche (Live in Berlin 2012)
TTITLE5=Chima - Morgen
TTITLE6=Blumentopf featuring Pohlmann - Bin dann mal weg
TTITLE7=Teesy - Mein Job
TTITLE8=Mc Fitti - 30 Grad
TTITLE9=Deichkind - Der Mond
TTITLE10=Kanye West featuring DJ Khaled - Cold
TTITLE11=Nas - The Don
TTITLE12=Tyga featuring Drake - Still Got It
TTITLE13=Lupe Fiasco - Bitch Bad
TTITLE14=Ludacris - Jingalin
TTITLE15=Trey Songz - Heart Attack
TTITLE16=Travis Porter - Aww Yea
TTITLE17=Lil Wayne featuring Big Sean - My Homies Still
TTITLE18=Drake featuring Lil Wayne - The Motto
TTITLE19=Culcha Candela - Von allein
TTITLE20=Y-Titty - Der Letzte Sommer
EXTD=YEAR: 2012
EXTT0=
EXTT1=
EXTT2=
EXTT3=
EXTT4=
EXTT5=
EXTT6=
EXTT7=
EXTT8=
EXTT9=
EXTT10=
EXTT11=
EXTT12=
EXTT13=
EXTT14=
EXTT15=
EXTT16=
EXTT17=
EXTT18=
EXTT19=
EXTT20=
PLAYORDER=
